<?xml version="1.0" encoding="UTF-8" standalone="no"?>
<svg
   xmlns:dc="http://purl.org/dc/elements/1.1/"
   xmlns:cc="http://creativecommons.org/ns#"
   xmlns:rdf="http://www.w3.org/1999/02/22-rdf-syntax-ns#"
   xmlns:svg="http://www.w3.org/2000/svg"
   xmlns="http://www.w3.org/2000/svg"
   viewBox="0 0 666.66669 666.66669"
   height="666.66669"
   width="666.66669"
   xml:space="preserve"
   id="svg2"
   version="1.1"><metadata
     id="metadata8"><rdf:RDF><cc:Work
         rdf:about=""><dc:format>image/svg+xml</dc:format><dc:type
           rdf:resource="http://purl.org/dc/dcmitype/StillImage" /><dc:title></dc:title></cc:Work></rdf:RDF></metadata><defs
     id="defs6"><clipPath
       id="clipPath66"
       clipPathUnits="userSpaceOnUse"><path
         id="path64"
         d="m 3671.06,3315.29 v -467.61 c 0,-116.93 -94.79,-211.73 -211.73,-211.73 v 0 c -157.99,0 -261.84,167.5 -188.83,307.6 63.59,122.02 181.85,259.66 400.56,371.74 z" /></clipPath></defs><g
     transform="matrix(1.3333333,0,0,-1.3333333,0,666.66667)"
     id="g10"><path
       d="m 425.243,307.217 h -19.564 c -7.322,0 -13.257,5.937 -13.257,13.259 v 7.361 c 0,7.322 5.935,13.258 13.257,13.258 h 19.564 c 7.322,0 13.258,-5.936 13.258,-13.258 v -7.361 c 0,-7.322 -5.936,-13.259 -13.258,-13.259"
       style="fill:#6acdc7;fill-opacity:1;fill-rule:nonzero;stroke:none;stroke-width:0.1"
       id="path16" /><path
       d="m 408.849,311.047 6.448,-11.48 6.776,11.48 z"
       style="fill:#6acdc7;fill-opacity:1;fill-rule:nonzero;stroke:none;stroke-width:0.1"
       id="path18" /><path
       d="m 417.046,315.437 v -2.495 h -2.698 v 2.405 c -2.248,0.158 -4.383,0.81 -5.687,1.709 l 1.462,3.282 c 1.393,-0.922 3.371,-1.551 5.192,-1.551 1.844,0 2.563,0.517 2.563,1.281 0,2.495 -8.947,0.674 -8.947,6.519 0,2.473 1.776,4.563 5.417,5.013 v 2.473 h 2.698 v -2.428 c 1.664,-0.135 3.304,-0.585 4.563,-1.326 l -1.371,-3.305 c -1.506,0.809 -2.989,1.214 -4.361,1.214 -1.866,0 -2.54,-0.629 -2.54,-1.416 0,-2.406 8.924,-0.607 8.924,-6.407 0,-2.382 -1.709,-4.451 -5.215,-4.968"
       style="fill:#ffffff;fill-opacity:1;fill-rule:nonzero;stroke:none;stroke-width:0.1"
       id="path20" /><path
       d="m 305.405,369.235 c 0,-6.557 -5.315,-11.871 -11.871,-11.871 -6.556,0 -11.87,5.314 -11.87,11.871 0,6.555 5.314,11.87 11.87,11.87 6.556,0 11.871,-5.315 11.871,-11.87"
       style="fill:#e3e5f5;fill-opacity:1;fill-rule:nonzero;stroke:none;stroke-width:0.1"
       id="path22" /><path
       d="m 55.5879,251.301 c 0,-4.707 -3.8152,-8.522 -8.5223,-8.522 -4.7066,0 -8.5218,3.815 -8.5218,8.522 0,4.707 3.8152,8.523 8.5218,8.523 4.7071,0 8.5223,-3.816 8.5223,-8.523"
       style="fill:#e3e5f5;fill-opacity:1;fill-rule:nonzero;stroke:none;stroke-width:0.1"
       id="path24" /><path
       d="m 457.332,267.606 c 0.169,-2.885 -2.033,-5.361 -4.917,-5.53 -2.885,-0.169 -5.361,2.033 -5.53,4.918 -0.169,2.885 2.033,5.36 4.917,5.529 2.885,0.169 5.361,-2.033 5.53,-4.917"
       style="fill:#e3e5f5;fill-opacity:1;fill-rule:nonzero;stroke:none;stroke-width:0.1"
       id="path26" /><path
       d="m 210.922,421.026 1.125,-2.93 c 0.693,-1.802 2.117,-3.226 3.919,-3.919 l 2.929,-1.125 -2.929,-1.127 c -1.802,-0.692 -3.226,-2.116 -3.919,-3.918 l -1.125,-2.93 -1.127,2.93 c -0.692,1.802 -2.117,3.226 -3.918,3.918 l -2.93,1.127 2.93,1.125 c 1.801,0.693 3.226,2.117 3.918,3.919 l 1.127,2.93"
       style="fill:#6acdc7;fill-opacity:1;fill-rule:nonzero;stroke:none;stroke-width:0.1"
       id="path28" /><path
       d="m 55.5746,349.769 0.8117,-2.111 c 0.4992,-1.299 1.5254,-2.325 2.8239,-2.824 l 2.1109,-0.811 -2.1109,-0.812 c -1.2985,-0.499 -2.3247,-1.525 -2.8239,-2.824 l -0.8117,-2.111 -0.8113,2.111 c -0.4996,1.299 -1.5254,2.325 -2.8238,2.824 l -2.1114,0.812 2.1114,0.811 c 1.2984,0.499 2.3242,1.525 2.8238,2.824 l 0.8113,2.111"
       style="fill:#6acdc7;fill-opacity:1;fill-rule:nonzero;stroke:none;stroke-width:0.1"
       id="path30" /><path
       d="m 403.042,390.375 0.811,-2.111 c 0.499,-1.298 1.526,-2.324 2.823,-2.823 l 2.112,-0.812 -2.112,-0.811 c -1.297,-0.5 -2.324,-1.526 -2.823,-2.825 l -0.811,-2.111 -0.812,2.111 c -0.499,1.299 -1.525,2.325 -2.824,2.825 l -2.11,0.811 2.11,0.812 c 1.299,0.499 2.325,1.525 2.824,2.823 l 0.812,2.111"
       style="fill:#6acdc7;fill-opacity:1;fill-rule:nonzero;stroke:none;stroke-width:0.1"
       id="path32" /><path
       d="m 420.972,131.957 c 0,0 38.734,55.805 16.998,98.044 -28.908,56.175 -71.732,46.636 -120.177,65.061 -48.446,18.424 -91.937,66.509 -130.804,47.465 C 128.108,313.675 167.1,278.148 95.5016,224.309 44.2414,185.763 88.0984,131.694 88.0984,131.694 l 332.8736,0.263"
       style="fill:#e3e5f5;fill-opacity:1;fill-rule:nonzero;stroke:none;stroke-width:0.1"
       id="path34" /><path
       d="m 463.584,125.174 c 0,-8.09 -97.61,-14.648 -218.017,-14.648 -120.407,0 -218.0166,6.558 -218.0166,14.648 0,8.088 97.6096,14.646 218.0166,14.646 120.407,0 218.017,-6.558 218.017,-14.646"
       style="fill:#dff4f3;fill-opacity:1;fill-rule:nonzero;stroke:none;stroke-width:0.1"
       id="path36" /><path
       d="m 176.077,160.188 1.768,-27.642 H 151.07 c 0,0 -24.812,32.871 -30.142,88.07 l 55.149,-60.428"
       style="fill:#b4bce5;fill-opacity:1;fill-rule:nonzero;stroke:none;stroke-width:0.1"
       id="path38" /><path
       d="m 144.647,183.871 c 0,0 3.385,-26.478 32.116,-35.289 l -0.686,11.606 -31.43,23.683"
       style="fill:#90a3da;fill-opacity:1;fill-rule:nonzero;stroke:none;stroke-width:0.1"
       id="path40" /><path
       d="m 223.238,160.188 v -27.642 h -26.774 c 0,0 -18.058,15.604 -20.387,46.368 l 47.161,-18.726"
       style="fill:#90a3da;fill-opacity:1;fill-rule:nonzero;stroke:none;stroke-width:0.1"
       id="path42" /><path
       d="m 310.129,160.188 v -27.642 h 26.774 c 0,0 18.058,15.604 20.386,46.368 l -47.16,-18.726"
       style="fill:#b4bce5;fill-opacity:1;fill-rule:nonzero;stroke:none;stroke-width:0.1"
       id="path44" /><path
       d="m 310.129,146.02 v 7.221 l 47.586,19.379 c 0,0 -4.451,-12.135 -24.677,-22.293 -8.574,-4.307 -22.909,-4.307 -22.909,-4.307"
       style="fill:#90a3da;fill-opacity:1;fill-rule:nonzero;stroke:none;stroke-width:0.1"
       id="path46" /><path
       d="m 290.263,155.73 -95.946,-2.028 c -40.706,0 -73.704,32.998 -73.704,73.703 v 0 c 0,40.706 32.998,73.704 73.704,73.704 h 118.994 c 35.762,0 64.752,-28.991 64.752,-64.753 v -17.901 c 0,-35.762 -52.038,-62.725 -87.8,-62.725"
       style="fill:#b4bce5;fill-opacity:1;fill-rule:nonzero;stroke:none;stroke-width:0.1"
       id="path48" /><path
       d="m 131.701,245.858 c 0,0 -36.3115,11.082 -33.8908,32.263 2.4208,21.182 26.3268,10.571 19.5278,-4.377 -6.404,-14.077 -27.3954,-29.237 -27.3954,-29.237"
       style="fill:none;stroke:#b4bce5;stroke-width:6.1868;stroke-linecap:round;stroke-linejoin:round;stroke-miterlimit:10;stroke-dasharray:none;stroke-opacity:1"
       id="path50" /><path
       d="m 243.421,287.136 h -55.903 c -1.826,0 -3.307,1.481 -3.307,3.308 v 0 c 0,1.826 1.481,3.307 3.307,3.307 h 55.903 c 1.827,0 3.308,-1.481 3.308,-3.307 v 0 c 0,-1.827 -1.481,-3.308 -3.308,-3.308"
       style="fill:#7d96c8;fill-opacity:1;fill-rule:nonzero;stroke:none;stroke-width:0.1"
       id="path52" /><path
       d="m 289.38,160.188 v -27.642 h -26.775 c 0,0 -18.058,15.604 -20.386,46.368 l 47.161,-18.726"
       style="fill:#b4bce5;fill-opacity:1;fill-rule:nonzero;stroke:none;stroke-width:0.1"
       id="path54" /><path
       d="m 245.686,227.405 c 0,0 -10.606,-60.295 43.694,-80.712 v 22.392 l -43.694,58.32"
       style="fill:#90a3da;fill-opacity:1;fill-rule:nonzero;stroke:none;stroke-width:0.1"
       id="path56" /><path
       d="m 367.106,331.529 v -46.761 c 0,-11.693 -9.479,-21.173 -21.173,-21.173 v 0 c -15.799,0 -26.184,16.75 -18.883,30.76 6.359,12.202 18.185,25.966 40.056,37.174"
       style="fill:#90a3da;fill-opacity:1;fill-rule:nonzero;stroke:none;stroke-width:0.1"
       id="path58" /><g
       transform="scale(0.1)"
       id="g60"><g
         id="g62"
         clip-path="url(#clipPath66)"><path
           d="m 3059.03,3020.9 c 14.57,0.91 482.72,36.27 704.23,-263.96 l -232.52,-120.99 -305.67,226.65 -166.04,158.3"
           style="fill:#7f97cc;fill-opacity:1;fill-rule:nonzero;stroke:none"
           id="path68" /></g></g><path
       d="m 384.293,227.405 c 0,-40.959 -33.205,-74.164 -74.164,-74.164 -40.96,0 -74.165,33.205 -74.165,74.164 0,40.96 33.205,74.165 74.165,74.165 40.959,0 74.164,-33.205 74.164,-74.165"
       style="fill:#b4bce5;fill-opacity:1;fill-rule:nonzero;stroke:none;stroke-width:0.1"
       id="path70" /><path
       d="m 306.131,335.713 v -50.087 c 0,-12.525 -10.154,-22.679 -22.678,-22.679 v 0 c -16.922,0 -28.047,17.941 -20.227,32.947 6.812,13.07 19.479,27.814 42.905,39.819"
       style="fill:#90a3da;fill-opacity:1;fill-rule:nonzero;stroke:none;stroke-width:0.1"
       id="path72" /><path
       d="m 314.075,244.855 c 0,-3.251 -2.635,-5.886 -5.886,-5.886 -3.251,0 -5.886,2.635 -5.886,5.886 0,3.25 2.635,5.886 5.886,5.886 3.251,0 5.886,-2.636 5.886,-5.886"
       style="fill:#36357f;fill-opacity:1;fill-rule:nonzero;stroke:none;stroke-width:0.1"
       id="path74" /><path
       d="m 376.326,244.855 c 0,-3.251 -2.636,-5.886 -5.886,-5.886 -3.251,0 -5.887,2.635 -5.887,5.886 0,3.25 2.636,5.886 5.887,5.886 3.25,0 5.886,-2.636 5.886,-5.886"
       style="fill:#36357f;fill-opacity:1;fill-rule:nonzero;stroke:none;stroke-width:0.1"
       id="path76" /><path
       d="m 376.024,210.424 c 0,-11.518 -13.119,-20.856 -29.303,-20.856 -16.183,0 -29.302,9.338 -29.302,20.856 0,11.519 13.119,20.857 29.302,20.857 16.184,0 29.303,-9.338 29.303,-20.857"
       style="fill:#90a3da;fill-opacity:1;fill-rule:nonzero;stroke:none;stroke-width:0.1"
       id="path78" /><path
       d="m 344.77,211.92 c 0,-4.803 -1.756,-8.697 -3.921,-8.697 -2.165,0 -3.92,3.894 -3.92,8.697 0,4.802 1.755,8.696 3.92,8.696 2.165,0 3.921,-3.894 3.921,-8.696"
       style="fill:#36357f;fill-opacity:1;fill-rule:nonzero;stroke:none;stroke-width:0.1"
       id="path80" /><path
       d="m 365.156,211.92 c 0,-4.803 -1.756,-8.697 -3.921,-8.697 -2.165,0 -3.92,3.894 -3.92,8.697 0,4.802 1.755,8.696 3.92,8.696 2.165,0 3.921,-3.894 3.921,-8.696"
       style="fill:#36357f;fill-opacity:1;fill-rule:nonzero;stroke:none;stroke-width:0.1"
       id="path82" /><path
       d="m 110.217,139.435 v -7.624 c 0,-0.077 -0.006,-0.155 -0.024,-0.233 -0.012,-0.083 -0.036,-0.161 -0.06,-0.239 -0.029,-0.072 -0.06,-0.15 -0.101,-0.215 -0.078,-0.138 -0.18,-0.264 -0.305,-0.366 0,-0.005 -0.006,-0.005 -0.013,-0.011 0,0 0,-0.006 -0.005,-0.006 -0.036,-0.03 -0.078,-0.061 -0.12,-0.084 -0.03,-0.024 -0.06,-0.042 -0.09,-0.061 -0.006,0 -0.006,-0.005 -0.012,-0.005 -0.054,-0.03 -0.113,-0.054 -0.173,-0.078 -0.066,-0.024 -0.138,-0.047 -0.21,-0.06 -0.012,-0.006 -0.024,-0.006 -0.041,-0.006 -0.078,-0.018 -0.156,-0.023 -0.24,-0.023 H 56.1277 c -0.0836,0 -0.1617,0.005 -0.2394,0.023 -0.0121,0 -0.0297,0 -0.0418,0.006 -0.0719,0.013 -0.1438,0.036 -0.2098,0.06 -0.0594,0.024 -0.1195,0.048 -0.173,0.078 -0.0242,0.018 -0.0481,0.03 -0.066,0.042 -0.1973,0.12 -0.359,0.293 -0.4727,0.491 -0.0422,0.065 -0.0719,0.143 -0.102,0.215 -0.0242,0.078 -0.048,0.156 -0.0597,0.239 -0.018,0.078 -0.0238,0.156 -0.0238,0.233 v 7.624 c 0,0.084 0.0058,0.161 0.0238,0.239 0.1078,0.653 0.6762,1.15 1.3644,1.15 h 52.6953 c 0.694,0 1.263,-0.497 1.37,-1.15 0.018,-0.078 0.024,-0.155 0.024,-0.239"
       style="fill:#6acdc7;fill-opacity:1;fill-rule:nonzero;stroke:none;stroke-width:0.1"
       id="path84" /><path
       d="m 105.37,140.824 v -10.4 H 93.6715 v 10.4 H 105.37"
       style="fill:#88d7d3;fill-opacity:1;fill-rule:nonzero;stroke:none;stroke-width:0.1"
       id="path86" /><path
       d="M 110.193,139.674 H 54.7633 c 0.1078,0.653 0.6762,1.15 1.3644,1.15 h 52.6953 c 0.694,0 1.263,-0.497 1.37,-1.15"
       style="fill:#88d7d3;fill-opacity:1;fill-rule:nonzero;stroke:none;stroke-width:0.1"
       id="path88" /><path
       d="m 110.193,131.578 c -0.012,-0.083 -0.036,-0.161 -0.06,-0.239 -0.029,-0.072 -0.06,-0.15 -0.101,-0.215 -0.078,-0.138 -0.18,-0.264 -0.305,-0.366 0,-0.005 -0.006,-0.005 -0.013,-0.011 0,0 0,-0.006 -0.005,0 v -0.006 c -0.036,-0.03 -0.078,-0.061 -0.12,-0.084 -0.03,-0.024 -0.06,-0.042 -0.09,-0.061 -0.006,0 -0.006,-0.005 -0.012,-0.005 -0.054,-0.03 -0.113,-0.054 -0.173,-0.078 -0.066,-0.024 -0.138,-0.047 -0.21,-0.06 -0.012,-0.006 -0.024,-0.006 -0.041,-0.006 -0.078,-0.018 -0.156,-0.023 -0.24,-0.023 H 56.1277 c -0.0836,0 -0.1617,0.005 -0.2394,0.023 -0.0121,0 -0.0297,0 -0.0418,0.006 -0.0719,0.013 -0.1438,0.036 -0.2098,0.06 -0.0594,0.024 -0.1195,0.048 -0.173,0.078 -0.0242,0.018 -0.0481,0.03 -0.066,0.042 -0.1973,0.12 -0.359,0.293 -0.4727,0.491 -0.0422,0.065 -0.0719,0.143 -0.102,0.215 -0.0242,0.078 -0.048,0.156 -0.0597,0.239 h 55.4297"
       style="fill:#88d7d3;fill-opacity:1;fill-rule:nonzero;stroke:none;stroke-width:0.1"
       id="path90" /><path
       d="m 110.217,158.08 v -7.624 c 0,-0.078 -0.006,-0.156 -0.024,-0.234 -0.012,-0.084 -0.036,-0.161 -0.06,-0.239 -0.029,-0.072 -0.06,-0.149 -0.101,-0.216 -0.078,-0.137 -0.18,-0.262 -0.305,-0.364 0,-0.007 -0.006,-0.007 -0.013,-0.013 0,0 0,-0.006 -0.005,-0.006 -0.036,-0.029 -0.078,-0.059 -0.12,-0.084 -0.03,-0.023 -0.06,-0.041 -0.09,-0.059 -0.006,0 -0.006,-0.006 -0.012,-0.006 -0.054,-0.03 -0.113,-0.054 -0.173,-0.078 -0.066,-0.024 -0.138,-0.048 -0.21,-0.06 -0.012,-0.006 -0.024,-0.006 -0.041,-0.006 -0.078,-0.017 -0.156,-0.023 -0.24,-0.023 H 56.1277 c -0.0836,0 -0.1617,0.006 -0.2394,0.023 -0.0121,0 -0.0297,0 -0.0418,0.006 -0.0719,0.012 -0.1438,0.036 -0.2098,0.06 -0.0594,0.024 -0.1195,0.048 -0.173,0.078 -0.0242,0.018 -0.0481,0.03 -0.066,0.042 -0.1973,0.119 -0.359,0.293 -0.4727,0.49 -0.0422,0.067 -0.0719,0.144 -0.102,0.216 -0.0242,0.078 -0.048,0.155 -0.0597,0.239 -0.018,0.078 -0.0238,0.156 -0.0238,0.234 v 7.624 c 0,0.084 0.0058,0.161 0.0238,0.239 0.1078,0.652 0.6762,1.148 1.3644,1.148 h 52.6953 c 0.694,0 1.263,-0.496 1.37,-1.148 0.018,-0.078 0.024,-0.155 0.024,-0.239"
       style="fill:#6acdc7;fill-opacity:1;fill-rule:nonzero;stroke:none;stroke-width:0.1"
       id="path92" /><path
       d="M 105.37,159.467 V 149.068 H 93.6715 v 10.399 H 105.37"
       style="fill:#88d7d3;fill-opacity:1;fill-rule:nonzero;stroke:none;stroke-width:0.1"
       id="path94" /><path
       d="M 110.193,158.319 H 54.7633 c 0.1078,0.652 0.6762,1.148 1.3644,1.148 h 52.6953 c 0.694,0 1.263,-0.496 1.37,-1.148"
       style="fill:#88d7d3;fill-opacity:1;fill-rule:nonzero;stroke:none;stroke-width:0.1"
       id="path96" /><path
       d="m 110.193,150.222 c -0.012,-0.084 -0.036,-0.161 -0.06,-0.239 -0.029,-0.072 -0.06,-0.149 -0.101,-0.216 -0.078,-0.137 -0.18,-0.262 -0.305,-0.364 0,-0.007 -0.006,-0.007 -0.013,-0.013 0,0 0,-0.006 -0.005,0 v -0.006 c -0.036,-0.029 -0.078,-0.059 -0.12,-0.084 -0.03,-0.023 -0.06,-0.041 -0.09,-0.059 -0.006,0 -0.006,-0.006 -0.012,-0.006 -0.054,-0.03 -0.113,-0.054 -0.173,-0.078 -0.066,-0.024 -0.138,-0.048 -0.21,-0.06 -0.012,-0.006 -0.024,-0.006 -0.041,-0.006 -0.078,-0.017 -0.156,-0.023 -0.24,-0.023 H 56.1277 c -0.0836,0 -0.1617,0.006 -0.2394,0.023 -0.0121,0 -0.0297,0 -0.0418,0.006 -0.0719,0.012 -0.1438,0.036 -0.2098,0.06 -0.0594,0.024 -0.1195,0.048 -0.173,0.078 -0.0242,0.018 -0.0481,0.03 -0.066,0.042 -0.1973,0.119 -0.359,0.293 -0.4727,0.49 -0.0422,0.067 -0.0719,0.144 -0.102,0.216 -0.0242,0.078 -0.048,0.155 -0.0597,0.239 h 55.4297"
       style="fill:#88d7d3;fill-opacity:1;fill-rule:nonzero;stroke:none;stroke-width:0.1"
       id="path98" /><path
       d="m 110.217,185.975 v -7.624 c 0,-0.078 -0.006,-0.155 -0.024,-0.233 -0.012,-0.084 -0.036,-0.161 -0.06,-0.239 -0.029,-0.073 -0.06,-0.15 -0.101,-0.216 -0.078,-0.137 -0.18,-0.263 -0.305,-0.364 0,-0.006 -0.006,-0.006 -0.013,-0.013 0,0 0,-0.006 -0.005,-0.006 -0.036,-0.029 -0.078,-0.06 -0.12,-0.084 -0.03,-0.023 -0.06,-0.041 -0.09,-0.06 -0.006,0 -0.006,-0.005 -0.012,-0.005 -0.054,-0.031 -0.113,-0.054 -0.173,-0.079 -0.066,-0.023 -0.138,-0.047 -0.21,-0.059 -0.012,-0.006 -0.024,-0.006 -0.041,-0.006 -0.078,-0.018 -0.156,-0.024 -0.24,-0.024 H 56.1277 c -0.0836,0 -0.1617,0.006 -0.2394,0.024 -0.0121,0 -0.0297,0 -0.0418,0.006 -0.0719,0.012 -0.1438,0.036 -0.2098,0.059 -0.0594,0.025 -0.1195,0.048 -0.173,0.079 -0.0242,0.017 -0.0481,0.03 -0.066,0.042 -0.1973,0.12 -0.359,0.293 -0.4727,0.49 -0.0422,0.066 -0.0719,0.143 -0.102,0.216 -0.0242,0.078 -0.048,0.155 -0.0597,0.239 -0.018,0.078 -0.0238,0.155 -0.0238,0.233 v 7.624 c 0,0.083 0.0058,0.161 0.0238,0.24 0.1078,0.652 0.6762,1.148 1.3644,1.148 h 52.6953 c 0.694,0 1.263,-0.496 1.37,-1.148 0.018,-0.079 0.024,-0.157 0.024,-0.24"
       style="fill:#6acdc7;fill-opacity:1;fill-rule:nonzero;stroke:none;stroke-width:0.1"
       id="path100" /><path
       d="m 105.37,187.363 v -10.4 H 93.6715 v 10.4 H 105.37"
       style="fill:#88d7d3;fill-opacity:1;fill-rule:nonzero;stroke:none;stroke-width:0.1"
       id="path102" /><path
       d="M 110.193,186.215 H 54.7633 c 0.1078,0.652 0.6762,1.148 1.3644,1.148 h 52.6953 c 0.694,0 1.263,-0.496 1.37,-1.148"
       style="fill:#88d7d3;fill-opacity:1;fill-rule:nonzero;stroke:none;stroke-width:0.1"
       id="path104" /><path
       d="m 110.193,178.118 c -0.012,-0.084 -0.036,-0.161 -0.06,-0.239 -0.029,-0.073 -0.06,-0.15 -0.101,-0.216 -0.078,-0.137 -0.18,-0.263 -0.305,-0.364 0,-0.006 -0.006,-0.006 -0.013,-0.013 0,0 0,-0.006 -0.005,0 v -0.006 c -0.036,-0.029 -0.078,-0.06 -0.12,-0.084 -0.03,-0.023 -0.06,-0.041 -0.09,-0.06 -0.006,0 -0.006,-0.005 -0.012,-0.005 -0.054,-0.031 -0.113,-0.054 -0.173,-0.079 -0.066,-0.023 -0.138,-0.047 -0.21,-0.059 -0.012,-0.006 -0.024,-0.006 -0.041,-0.006 -0.078,-0.018 -0.156,-0.024 -0.24,-0.024 H 56.1277 c -0.0836,0 -0.1617,0.006 -0.2394,0.024 -0.0121,0 -0.0297,0 -0.0418,0.006 -0.0719,0.012 -0.1438,0.036 -0.2098,0.059 -0.0594,0.025 -0.1195,0.048 -0.173,0.079 -0.0242,0.017 -0.0481,0.03 -0.066,0.042 -0.1973,0.12 -0.359,0.293 -0.4727,0.49 -0.0422,0.066 -0.0719,0.143 -0.102,0.216 -0.0242,0.078 -0.048,0.155 -0.0597,0.239 h 55.4297"
       style="fill:#88d7d3;fill-opacity:1;fill-rule:nonzero;stroke:none;stroke-width:0.1"
       id="path106" /><path
       d="m 118.821,148.686 v -7.623 c 0,-0.078 -0.006,-0.156 -0.024,-0.233 -0.012,-0.084 -0.036,-0.162 -0.06,-0.239 -0.03,-0.073 -0.06,-0.151 -0.102,-0.216 -0.077,-0.138 -0.179,-0.264 -0.305,-0.366 0,-0.005 -0.006,-0.005 -0.012,-0.011 0,0 0,-0.006 -0.005,-0.006 -0.036,-0.03 -0.078,-0.06 -0.12,-0.084 -0.03,-0.024 -0.06,-0.042 -0.09,-0.06 -0.006,0 -0.006,-0.006 -0.012,-0.006 -0.054,-0.03 -0.114,-0.054 -0.173,-0.078 -0.066,-0.024 -0.138,-0.048 -0.21,-0.059 -0.012,-0.006 -0.024,-0.006 -0.042,-0.006 -0.077,-0.019 -0.156,-0.025 -0.239,-0.025 H 64.7316 c -0.0839,0 -0.1617,0.006 -0.2398,0.025 -0.0117,0 -0.0297,0 -0.0414,0.006 -0.0723,0.011 -0.1441,0.035 -0.2094,0.059 -0.0601,0.024 -0.1199,0.048 -0.1738,0.078 -0.0242,0.018 -0.0481,0.03 -0.0656,0.042 -0.1977,0.12 -0.3594,0.293 -0.4731,0.491 -0.0422,0.065 -0.0719,0.143 -0.1015,0.216 -0.0239,0.077 -0.0481,0.155 -0.0602,0.239 -0.0176,0.077 -0.0234,0.155 -0.0234,0.233 v 7.623 c 0,0.084 0.0058,0.162 0.0234,0.239 0.1078,0.653 0.6762,1.15 1.3648,1.15 h 52.6954 c 0.694,0 1.263,-0.497 1.37,-1.15 0.018,-0.077 0.024,-0.155 0.024,-0.239"
       style="fill:#6acdc7;fill-opacity:1;fill-rule:nonzero;stroke:none;stroke-width:0.1"
       id="path108" /><path
       d="m 113.974,150.075 v -10.401 h -11.698 v 10.401 h 11.698"
       style="fill:#88d7d3;fill-opacity:1;fill-rule:nonzero;stroke:none;stroke-width:0.1"
       id="path110" /><path
       d="M 118.797,148.925 H 63.3668 c 0.1078,0.653 0.6762,1.15 1.3648,1.15 h 52.6954 c 0.694,0 1.263,-0.497 1.37,-1.15"
       style="fill:#88d7d3;fill-opacity:1;fill-rule:nonzero;stroke:none;stroke-width:0.1"
       id="path112" /><path
       d="m 118.797,140.83 c -0.012,-0.084 -0.036,-0.162 -0.06,-0.239 -0.03,-0.073 -0.06,-0.151 -0.102,-0.216 -0.077,-0.138 -0.179,-0.264 -0.305,-0.366 0,-0.005 -0.006,-0.005 -0.012,-0.011 0,0 0,-0.006 -0.005,0 v -0.006 c -0.036,-0.03 -0.078,-0.06 -0.12,-0.084 -0.03,-0.024 -0.06,-0.042 -0.09,-0.06 -0.006,0 -0.006,-0.006 -0.012,-0.006 -0.054,-0.03 -0.114,-0.054 -0.173,-0.078 -0.066,-0.024 -0.138,-0.048 -0.21,-0.059 -0.012,-0.006 -0.024,-0.006 -0.042,-0.006 -0.077,-0.019 -0.156,-0.025 -0.239,-0.025 H 64.7316 c -0.0839,0 -0.1617,0.006 -0.2398,0.025 -0.0117,0 -0.0297,0 -0.0414,0.006 -0.0723,0.011 -0.1441,0.035 -0.2094,0.059 -0.0601,0.024 -0.1199,0.048 -0.1738,0.078 -0.0242,0.018 -0.0481,0.03 -0.0656,0.042 -0.1977,0.12 -0.3594,0.293 -0.4731,0.491 -0.0422,0.065 -0.0719,0.143 -0.1015,0.216 -0.0239,0.077 -0.0481,0.155 -0.0602,0.239 h 55.4302"
       style="fill:#88d7d3;fill-opacity:1;fill-rule:nonzero;stroke:none;stroke-width:0.1"
       id="path114" /><path
       d="m 118.821,167.331 v -7.624 c 0,-0.077 -0.006,-0.156 -0.024,-0.234 -0.012,-0.083 -0.036,-0.161 -0.06,-0.239 -0.03,-0.071 -0.06,-0.149 -0.102,-0.215 -0.077,-0.137 -0.179,-0.263 -0.305,-0.365 0,-0.006 -0.006,-0.006 -0.012,-0.012 0,0 0,-0.007 -0.005,-0.007 -0.036,-0.029 -0.078,-0.059 -0.12,-0.083 -0.03,-0.024 -0.06,-0.042 -0.09,-0.059 -0.006,0 -0.006,-0.007 -0.012,-0.007 -0.054,-0.029 -0.114,-0.054 -0.173,-0.077 -0.066,-0.025 -0.138,-0.048 -0.21,-0.061 -0.012,-0.006 -0.024,-0.006 -0.042,-0.006 -0.077,-0.017 -0.156,-0.023 -0.239,-0.023 H 64.7316 c -0.0839,0 -0.1617,0.006 -0.2398,0.023 -0.0117,0 -0.0297,0 -0.0414,0.006 -0.0723,0.013 -0.1441,0.036 -0.2094,0.061 -0.0601,0.023 -0.1199,0.048 -0.1738,0.077 -0.0242,0.019 -0.0481,0.03 -0.0656,0.042 -0.1977,0.12 -0.3594,0.293 -0.4731,0.491 -0.0422,0.066 -0.0719,0.144 -0.1015,0.215 -0.0239,0.078 -0.0481,0.156 -0.0602,0.239 -0.0176,0.078 -0.0234,0.157 -0.0234,0.234 v 7.624 c 0,0.084 0.0058,0.161 0.0234,0.239 0.1078,0.652 0.6762,1.149 1.3648,1.149 h 52.6954 c 0.694,0 1.263,-0.497 1.37,-1.149 0.018,-0.078 0.024,-0.155 0.024,-0.239"
       style="fill:#6acdc7;fill-opacity:1;fill-rule:nonzero;stroke:none;stroke-width:0.1"
       id="path116" /><path
       d="m 113.974,168.719 v -10.4 h -11.698 v 10.4 h 11.698"
       style="fill:#88d7d3;fill-opacity:1;fill-rule:nonzero;stroke:none;stroke-width:0.1"
       id="path118" /><path
       d="M 118.797,167.57 H 63.3668 c 0.1078,0.652 0.6762,1.149 1.3648,1.149 h 52.6954 c 0.694,0 1.263,-0.497 1.37,-1.149"
       style="fill:#88d7d3;fill-opacity:1;fill-rule:nonzero;stroke:none;stroke-width:0.1"
       id="path120" /><path
       d="m 118.797,159.473 c -0.012,-0.083 -0.036,-0.161 -0.06,-0.239 -0.03,-0.071 -0.06,-0.149 -0.102,-0.215 -0.077,-0.137 -0.179,-0.263 -0.305,-0.365 0,-0.006 -0.006,-0.006 -0.012,-0.012 0,0 0,-0.007 -0.005,0 v -0.007 c -0.036,-0.029 -0.078,-0.059 -0.12,-0.083 -0.03,-0.024 -0.06,-0.042 -0.09,-0.059 -0.006,0 -0.006,-0.007 -0.012,-0.007 -0.054,-0.029 -0.114,-0.054 -0.173,-0.077 -0.066,-0.025 -0.138,-0.048 -0.21,-0.061 -0.012,-0.006 -0.024,-0.006 -0.042,-0.006 -0.077,-0.017 -0.156,-0.023 -0.239,-0.023 H 64.7316 c -0.0839,0 -0.1617,0.006 -0.2398,0.023 -0.0117,0 -0.0297,0 -0.0414,0.006 -0.0723,0.013 -0.1441,0.036 -0.2094,0.061 -0.0601,0.023 -0.1199,0.048 -0.1738,0.077 -0.0242,0.019 -0.0481,0.03 -0.0656,0.042 -0.1977,0.12 -0.3594,0.293 -0.4731,0.491 -0.0422,0.066 -0.0719,0.144 -0.1015,0.215 -0.0239,0.078 -0.0481,0.156 -0.0602,0.239 h 55.4302"
       style="fill:#88d7d3;fill-opacity:1;fill-rule:nonzero;stroke:none;stroke-width:0.1"
       id="path122" /><path
       d="M 118.821,176.723 V 169.1 c 0,-0.078 -0.006,-0.156 -0.024,-0.233 -0.012,-0.084 -0.036,-0.162 -0.06,-0.239 -0.03,-0.073 -0.06,-0.151 -0.102,-0.216 -0.077,-0.138 -0.179,-0.264 -0.305,-0.365 0,-0.006 -0.006,-0.006 -0.012,-0.012 0,0 0,-0.006 -0.005,-0.006 -0.036,-0.03 -0.078,-0.06 -0.12,-0.084 -0.03,-0.023 -0.06,-0.042 -0.09,-0.06 -0.006,0 -0.006,-0.005 -0.012,-0.005 -0.054,-0.031 -0.114,-0.054 -0.173,-0.079 -0.066,-0.023 -0.138,-0.047 -0.21,-0.059 -0.012,-0.006 -0.024,-0.006 -0.042,-0.006 -0.077,-0.019 -0.156,-0.024 -0.239,-0.024 H 64.7316 c -0.0839,0 -0.1617,0.005 -0.2398,0.024 -0.0117,0 -0.0297,0 -0.0414,0.006 -0.0723,0.012 -0.1441,0.036 -0.2094,0.059 -0.0601,0.025 -0.1199,0.048 -0.1738,0.079 -0.0242,0.017 -0.0481,0.029 -0.0656,0.042 -0.1977,0.119 -0.3594,0.293 -0.4731,0.49 -0.0422,0.065 -0.0719,0.143 -0.1015,0.216 -0.0239,0.077 -0.0481,0.155 -0.0602,0.239 -0.0176,0.077 -0.0234,0.155 -0.0234,0.233 v 7.623 c 0,0.084 0.0058,0.162 0.0234,0.24 0.1078,0.652 0.6762,1.149 1.3648,1.149 h 52.6954 c 0.694,0 1.263,-0.497 1.37,-1.149 0.018,-0.078 0.024,-0.156 0.024,-0.24"
       style="fill:#6acdc7;fill-opacity:1;fill-rule:nonzero;stroke:none;stroke-width:0.1"
       id="path124" /><path
       d="m 113.974,178.112 v -10.4 h -11.698 v 10.4 h 11.698"
       style="fill:#88d7d3;fill-opacity:1;fill-rule:nonzero;stroke:none;stroke-width:0.1"
       id="path126" /><path
       d="M 118.797,176.963 H 63.3668 c 0.1078,0.652 0.6762,1.149 1.3648,1.149 h 52.6954 c 0.694,0 1.263,-0.497 1.37,-1.149"
       style="fill:#88d7d3;fill-opacity:1;fill-rule:nonzero;stroke:none;stroke-width:0.1"
       id="path128" /><path
       d="m 118.797,168.867 c -0.012,-0.084 -0.036,-0.162 -0.06,-0.239 -0.03,-0.073 -0.06,-0.151 -0.102,-0.216 -0.077,-0.138 -0.179,-0.264 -0.305,-0.365 0,-0.006 -0.006,-0.006 -0.012,-0.012 0,0 0,-0.006 -0.005,0 v -0.006 c -0.036,-0.03 -0.078,-0.06 -0.12,-0.084 -0.03,-0.023 -0.06,-0.042 -0.09,-0.06 -0.006,0 -0.006,-0.005 -0.012,-0.005 -0.054,-0.031 -0.114,-0.054 -0.173,-0.079 -0.066,-0.023 -0.138,-0.047 -0.21,-0.059 -0.012,-0.006 -0.024,-0.006 -0.042,-0.006 -0.077,-0.019 -0.156,-0.024 -0.239,-0.024 H 64.7316 c -0.0839,0 -0.1617,0.005 -0.2398,0.024 -0.0117,0 -0.0297,0 -0.0414,0.006 -0.0723,0.012 -0.1441,0.036 -0.2094,0.059 -0.0601,0.025 -0.1199,0.048 -0.1738,0.079 -0.0242,0.017 -0.0481,0.029 -0.0656,0.042 -0.1977,0.119 -0.3594,0.293 -0.4731,0.49 -0.0422,0.065 -0.0719,0.143 -0.1015,0.216 -0.0239,0.077 -0.0481,0.155 -0.0602,0.239 h 55.4302"
       style="fill:#88d7d3;fill-opacity:1;fill-rule:nonzero;stroke:none;stroke-width:0.1"
       id="path130" /><path
       d="M 171.06,214.603 H 141.974"
       style="fill:none;stroke:#5b6bbc;stroke-width:2.08113003;stroke-linecap:round;stroke-linejoin:round;stroke-miterlimit:10;stroke-dasharray:none;stroke-opacity:1"
       id="path132" /><path
       d="M 172.07,196.742 H 142.984"
       style="fill:none;stroke:#5b6bbc;stroke-width:2.08113003;stroke-linecap:round;stroke-linejoin:round;stroke-miterlimit:10;stroke-dasharray:none;stroke-opacity:1"
       id="path134" /><path
       d="M 172.717,178.882 H 143.631"
       style="fill:none;stroke:#5b6bbc;stroke-width:2.08113003;stroke-linecap:round;stroke-linejoin:round;stroke-miterlimit:10;stroke-dasharray:none;stroke-opacity:1"
       id="path136" /><path
       d="M 174.431,161.02 H 145.344"
       style="fill:none;stroke:#5b6bbc;stroke-width:2.08113003;stroke-linecap:round;stroke-linejoin:round;stroke-miterlimit:10;stroke-dasharray:none;stroke-opacity:1"
       id="path138" /><path
       d="M 175.406,143.159 H 146.32"
       style="fill:none;stroke:#5b6bbc;stroke-width:2.08113003;stroke-linecap:round;stroke-linejoin:round;stroke-miterlimit:10;stroke-dasharray:none;stroke-opacity:1"
       id="path140" /><path
       d="m 169.755,232.355 7.843,-106.702"
       style="fill:none;stroke:#5b6bbc;stroke-width:2.08113003;stroke-linecap:round;stroke-linejoin:round;stroke-miterlimit:10;stroke-dasharray:none;stroke-opacity:1"
       id="path142" /><path
       d="m 140.669,232.355 7.842,-106.702"
       style="fill:none;stroke:#5b6bbc;stroke-width:2.08113003;stroke-linecap:round;stroke-linejoin:round;stroke-miterlimit:10;stroke-dasharray:none;stroke-opacity:1"
       id="path144" /><path
       d="m 152.319,125.653 17.436,106.702 H 140.456 L 123.019,125.653"
       style="fill:none;stroke:#373d9c;stroke-width:2.08113003;stroke-linecap:round;stroke-linejoin:round;stroke-miterlimit:10;stroke-dasharray:none;stroke-opacity:1"
       id="path146" /><path
       d="m 166.855,214.603 h -29.3"
       style="fill:none;stroke:#373d9c;stroke-width:2.08113003;stroke-linecap:round;stroke-linejoin:miter;stroke-miterlimit:10;stroke-dasharray:none;stroke-opacity:1"
       id="path148" /><path
       d="M 163.859,196.742 H 134.877"
       style="fill:none;stroke:#373d9c;stroke-width:2.08113003;stroke-linecap:round;stroke-linejoin:miter;stroke-miterlimit:10;stroke-dasharray:none;stroke-opacity:1"
       id="path150" /><path
       d="M 160.863,178.882 H 132.128"
       style="fill:none;stroke:#373d9c;stroke-width:2.08113003;stroke-linecap:round;stroke-linejoin:miter;stroke-miterlimit:10;stroke-dasharray:none;stroke-opacity:1"
       id="path152" /><path
       d="M 157.867,161.02 H 129.394"
       style="fill:none;stroke:#373d9c;stroke-width:2.08113003;stroke-linecap:round;stroke-linejoin:miter;stroke-miterlimit:10;stroke-dasharray:none;stroke-opacity:1"
       id="path154" /><path
       d="M 154.872,143.159 H 126.467"
       style="fill:none;stroke:#373d9c;stroke-width:2.08113003;stroke-linecap:round;stroke-linejoin:miter;stroke-miterlimit:10;stroke-dasharray:none;stroke-opacity:1"
       id="path156" /><path
       d="m 168.526,266.838 c 0,0 3.431,-11.492 4.553,-22.391 0.244,-2.363 -0.596,-4.708 -2.317,-6.346 l -30.527,-28.2 -4.958,7.926 19.597,22.212 4.123,23.882 9.529,2.917"
       style="fill:#3b45a2;fill-opacity:1;fill-rule:nonzero;stroke:none;stroke-width:0.1"
       id="path158" /><path
       d="m 135.829,216.979 -5.063,-2.112 c -0.67,-0.42 -0.873,-1.305 -0.453,-1.975 l 7.698,-12.283 c 0.354,-0.565 1.099,-0.736 1.664,-0.382 v 0 c 0.318,0.199 0.525,0.536 0.56,0.91 l -0.561,9.705 -3.845,6.137"
       style="fill:#18141a;fill-opacity:1;fill-rule:nonzero;stroke:none;stroke-width:0.1"
       id="path160" /><path
       d="m 163.052,265.344 2.156,-27.305 c 0.072,-0.914 0.02,-1.835 -0.155,-2.736 l -6.056,-31.169 H 148.99 l 1.838,31.219 -3.272,27.937 15.496,2.054"
       style="fill:#3e47a5;fill-opacity:1;fill-rule:nonzero;stroke:none;stroke-width:0.1"
       id="path162" /><path
       d="m 149.982,204.153 -0.899,-5.412 c 0,-0.791 0.641,-1.432 1.432,-1.432 l 14.497,0.001 c 0.666,0 1.207,0.54 1.207,1.206 v 0 c 0,0.376 -0.175,0.731 -0.474,0.959 l -8.522,4.678 h -7.241"
       style="fill:#18141a;fill-opacity:1;fill-rule:nonzero;stroke:none;stroke-width:0.1"
       id="path164" /><path
       d="m 167.611,337.353 c 0,-2.518 -2.041,-4.559 -4.559,-4.559 -2.518,0 -4.56,2.041 -4.56,4.559 0,2.518 2.042,4.559 4.56,4.559 2.518,0 4.559,-2.041 4.559,-4.559"
       style="fill:#974e4b;fill-opacity:1;fill-rule:nonzero;stroke:none;stroke-width:0.1"
       id="path166" /><path
       d="m 163.052,334.249 2.467,-7.005 5.094,2.269 -3.94,7.84 -3.621,-3.104"
       style="fill:#974e4b;fill-opacity:1;fill-rule:nonzero;stroke:none;stroke-width:0.1"
       id="path168" /><path
       d="m 160.736,300.599 7.217,12.715 -5.882,17.053 8.922,3.515 6.642,-19.792 c 0.354,-1.707 0.129,-3.485 -0.642,-5.049 l -11.754,-21.795 -4.503,13.353"
       style="fill:#e9dc8a;fill-opacity:1;fill-rule:nonzero;stroke:none;stroke-width:0.1"
       id="path170" /><path
       d="m 143.594,295.998 -20.817,-0.612 -1.101,-9.447 22.007,-0.849 c 2.406,-0.062 4.569,1.462 5.322,3.75 v 0 c 1.191,3.62 -1.602,7.316 -5.411,7.158"
       style="fill:#e9dc8a;fill-opacity:1;fill-rule:nonzero;stroke:none;stroke-width:0.1"
       id="path172" /><path
       d="m 134.81,313.659 c -1.8,-1.76 -4.687,-1.728 -6.448,0.072 -1.76,1.8 -1.728,4.687 0.072,6.448 1.801,1.761 4.687,1.728 6.448,-0.072 1.761,-1.8 1.728,-4.687 -0.072,-6.448"
       style="fill:#974e4b;fill-opacity:1;fill-rule:nonzero;stroke:none;stroke-width:0.1"
       id="path174" /><path
       d="m 128.362,314.749 -3.282,-6.662 5.183,-2.056 2.851,8.299 -4.752,0.419"
       style="fill:#974e4b;fill-opacity:1;fill-rule:nonzero;stroke:none;stroke-width:0.1"
       id="path176" /><path
       d="m 132.757,309.49 -6.218,-20.199 c -0.69,-2.239 -2.909,-3.641 -5.228,-3.301 v 0 c -3.085,0.452 -4.905,3.704 -3.676,6.569 l 8.21,19.162 6.912,-2.231"
       style="fill:#e9dc8a;fill-opacity:1;fill-rule:nonzero;stroke:none;stroke-width:0.1"
       id="path178" /><path
       d="m 152.058,298.091 -8.789,-2.084 2.652,-33.599 c 0,0 6.814,-5.905 24.268,3.647 l -6.515,36.31 -6.764,-3.8 -4.852,-0.474"
       style="fill:#e9dc8a;fill-opacity:1;fill-rule:nonzero;stroke:none;stroke-width:0.1"
       id="path180" /><path
       d="m 134.18,380.754 c -17.315,0 -31.352,-14.038 -31.352,-31.353 0,-17.315 14.037,-31.352 31.352,-31.352 17.315,0 31.352,14.037 31.352,31.352 0,17.315 -14.037,31.353 -31.352,31.353"
       style="fill:#52beb6;fill-opacity:1;fill-rule:nonzero;stroke:none;stroke-width:0.1"
       id="path182" /><path
       d="m 129.886,380.754 c -17.315,0 -31.3516,-14.038 -31.3516,-31.353 0,-17.315 14.0366,-31.352 31.3516,-31.352 17.316,0 31.353,14.037 31.353,31.352 0,17.315 -14.037,31.353 -31.353,31.353"
       style="fill:#88d7d3;fill-opacity:1;fill-rule:nonzero;stroke:none;stroke-width:0.1"
       id="path184" /><path
       d="m 129.886,373.99 c 13.581,0 24.59,-11.008 24.59,-24.589 0,-13.581 -11.009,-24.589 -24.59,-24.589 -13.58,0 -24.589,11.008 -24.589,24.589 0,13.581 11.009,24.589 24.589,24.589"
       style="fill:#6acdc7;fill-opacity:1;fill-rule:nonzero;stroke:none;stroke-width:0.1"
       id="path186" /><path
       d="m 130.253,373.99 c -0.464,0 -0.924,-0.016 -1.382,-0.042 12.736,-0.728 21.584,-11.447 21.584,-24.568 0,-13.121 -8.848,-23.841 -21.584,-24.568 0.458,-0.027 0.918,-0.043 1.382,-0.043 13.378,0 24.223,11.019 24.223,24.611 0,13.592 -10.845,24.61 -24.223,24.61"
       style="fill:#5ac7bd;fill-opacity:1;fill-rule:nonzero;stroke:none;stroke-width:0.1"
       id="path188" /><path
       d="m 132.157,336.129 v -4.091 h -4.422 v 3.944 c -3.687,0.258 -7.189,1.327 -9.328,2.801 l 2.397,5.382 c 2.285,-1.511 5.529,-2.543 8.515,-2.543 3.023,0 4.203,0.848 4.203,2.101 0,4.092 -14.672,1.106 -14.672,10.69 0,4.055 2.913,7.484 8.885,8.22 v 4.056 h 4.422 v -3.981 c 2.728,-0.222 5.419,-0.959 7.484,-2.176 l -2.249,-5.419 c -2.469,1.328 -4.903,1.991 -7.151,1.991 -3.06,0 -4.166,-1.032 -4.166,-2.322 0,-3.944 14.635,-0.995 14.635,-10.506 0,-3.907 -2.802,-7.299 -8.553,-8.147"
       style="fill:#ffffff;fill-opacity:1;fill-rule:nonzero;stroke:none;stroke-width:0.1"
       id="path190" /><path
       d="m 150.864,316.302 c -2.994,-0.974 -1.112,-5.659 -1.112,-5.659 l -3.831,-1.772 c 1.537,-3.636 5.054,-5.914 8.684,-5.301 4.335,0.733 7.177,5.304 6.349,10.21 -0.295,1.743 -0.993,3.133 -1.957,4.177 -0.104,-0.014 -5.168,-0.69 -8.133,-1.655"
       style="fill:#974e4b;fill-opacity:1;fill-rule:nonzero;stroke:none;stroke-width:0.1"
       id="path192" /><path
       d="m 149.965,297.195 -1.319,8.268 6.955,1.109 1.319,-8.268 c 0.306,-1.92 -0.402,-3.627 -2.322,-3.933 l -0.601,-0.098 c -1.921,-0.307 -3.726,1.002 -4.032,2.922"
       style="fill:#974e4b;fill-opacity:1;fill-rule:nonzero;stroke:none;stroke-width:0.1"
       id="path194" /><path
       d="m 148.261,306.216 c 0,0 1.315,-8.422 8.649,-7.651 l -0.826,4.816 -7.823,2.835"
       style="fill:#863e3f;fill-opacity:1;fill-rule:nonzero;stroke:none;stroke-width:0.1"
       id="path196" /><path
       d="m 163.005,311.461 c 0.255,-1.253 -0.554,-2.475 -1.807,-2.731 -1.253,-0.255 -2.475,0.554 -2.73,1.807 -0.255,1.253 0.554,2.475 1.807,2.73 1.252,0.255 2.475,-0.554 2.73,-1.806"
       style="fill:#863e3f;fill-opacity:1;fill-rule:nonzero;stroke:none;stroke-width:0.1"
       id="path198" /><path
       d="m 156.635,300.498 -0.253,-0.051 c -3.713,-0.755 -7.336,1.643 -8.092,5.356 l -1.546,7.593 c -0.196,0.961 0.425,1.899 1.386,2.095 l 8.851,1.802 c 1.717,0.35 3.393,-0.759 3.742,-2.476 l 1.268,-6.226 c 0.756,-3.714 -1.642,-7.337 -5.356,-8.093"
       style="fill:#974e4b;fill-opacity:1;fill-rule:nonzero;stroke:none;stroke-width:0.1"
       id="path200" /><path
       d="m 149.752,310.643 0.867,-4.383 c 0.152,-0.768 0.656,-1.451 1.389,-1.725 0.468,-0.175 0.866,-0.461 1.548,-0.178 1.919,0.796 0.652,1.886 4.751,2.686 3.756,0.733 3.965,-1.238 3.965,-1.238 0,0 0.272,-4.095 -4.761,-5.567 -5.032,-1.472 -8.371,1.103 -8.871,5.532 l -1.084,4.331 2.196,0.542"
       style="fill:#1e1f26;fill-opacity:1;fill-rule:nonzero;stroke:none;stroke-width:0.1"
       id="path202" /><path
       d="m 150.864,316.302 c 2.965,0.965 8.029,1.641 8.133,1.655 -1.751,1.894 -4.392,2.633 -7.187,2.16 -4.336,-0.732 -7.384,-4.083 -6.555,-8.989 0.135,-0.799 0.367,-1.551 0.666,-2.257 l 3.831,1.772 c 0,0 -1.882,4.685 1.112,5.659"
       style="fill:#1e1f26;fill-opacity:1;fill-rule:nonzero;stroke:none;stroke-width:0.1"
       id="path204" /><path
       d="m 148.821,308.428 c 0.51,-1.351 -0.172,-2.858 -1.523,-3.368 -1.35,-0.509 -2.858,0.173 -3.367,1.523 -0.509,1.351 0.172,2.859 1.523,3.368 1.35,0.509 2.858,-0.172 3.367,-1.523"
       style="fill:#974e4b;fill-opacity:1;fill-rule:nonzero;stroke:none;stroke-width:0.1"
       id="path206" /><path
       d="m 278.785,137.948 -4.468,5.98 -4.501,-3.568 4.284,-6.187 4.685,3.775"
       style="fill:#eba58b;fill-opacity:1;fill-rule:nonzero;stroke:none;stroke-width:0.1"
       id="path208" /><path
       d="m 278.918,138.378 4.031,-3.721 c 0.485,-0.624 0.372,-1.524 -0.252,-2.01 l -11.445,-8.896 c -0.527,-0.41 -1.286,-0.315 -1.695,0.212 v 0 c -0.23,0.296 -0.309,0.684 -0.214,1.047 l 3.858,8.924 5.717,4.444"
       style="fill:#18141a;fill-opacity:1;fill-rule:nonzero;stroke:none;stroke-width:0.1"
       id="path210" /><path
       d="m 239.193,193.847 10.885,-30.555 19.344,-26.569 9.435,5.429 -16.187,23.731 -8.267,28.079 -15.21,-0.115"
       style="fill:#3b45a2;fill-opacity:1;fill-rule:nonzero;stroke:none;stroke-width:0.1"
       id="path212" /><path
       d="m 230.934,129.285 2.737,6.946 -5.403,1.951 -3.009,-6.898 5.675,-1.999"
       style="fill:#eba58b;fill-opacity:1;fill-rule:nonzero;stroke:none;stroke-width:0.1"
       id="path214" /><path
       d="m 231.42,129.173 -0.922,-5.409 c -0.259,-0.747 -1.075,-1.143 -1.822,-0.883 l -13.698,4.745 c -0.63,0.217 -0.964,0.905 -0.745,1.535 v 0 c 0.123,0.355 0.404,0.633 0.761,0.751 l 9.584,1.631 6.842,-2.37"
       style="fill:#18141a;fill-opacity:1;fill-rule:nonzero;stroke:none;stroke-width:0.1"
       id="path216" /><path
       d="m 239.193,193.847 4.3,-5.227 -9.527,-21.515 -9.576,-31.242 10.911,-3.689 10.629,32.4 14.855,29.353 -5.116,-0.06 -16.476,-0.02"
       style="fill:#3e47a5;fill-opacity:1;fill-rule:nonzero;stroke:none;stroke-width:0.1"
       id="path218" /><path
       d="m 243.68,228.807 c 0.001,-10e-4 -0.693,-0.099 -1.617,-0.579 -2.261,-1.171 -3.586,-3.6 -3.527,-6.145 l -0.05,-30.355 c 0,0 10.375,-3.28 22.299,1.493 l -0.104,30.279 c 0.012,0.371 1.053,3.062 0.775,3.31 -0.748,0.666 -1.736,1.604 -3.316,1.94 -0.207,0.044 -0.422,0.057 -0.634,0.057 H 243.68"
       style="fill:#e9dc8a;fill-opacity:1;fill-rule:nonzero;stroke:none;stroke-width:0.1"
       id="path220" /><path
       d="m 238.92,224.529 -7.5,-19.579 14.68,3.56 z"
       style="fill:#e9dc8a;fill-opacity:1;fill-rule:nonzero;stroke:none;stroke-width:0.1"
       id="path222" /><path
       d="m 246.153,233.012 6.253,4.322 1.182,-0.774 -0.099,-7.723 c -0.026,-2.02 -1.671,-3.643 -3.69,-3.643 v 0 c -2.053,0 -3.712,1.677 -3.69,3.73 l 0.044,4.088"
       style="fill:#e7a185;fill-opacity:1;fill-rule:nonzero;stroke:none;stroke-width:0.1"
       id="path224" /><path
       d="m 246.119,229.784 c 0,0 7.928,-0.177 6.725,8.16 l -1.991,-1.391 -4.697,-3.785 -0.037,-2.984"
       style="fill:#d17570;fill-opacity:1;fill-rule:nonzero;stroke:none;stroke-width:0.1"
       id="path226" /><path
       d="m 247.828,225.846 3.932,-3.925 3.66,6.916 h -1.931 l -5.661,-2.991"
       style="fill:#ffffff;fill-opacity:1;fill-rule:nonzero;stroke:none;stroke-width:0.1"
       id="path228" /><path
       d="m 247.828,225.846 -3.456,-3.134 0.386,6.095 h 1.352 l 1.718,-2.961"
       style="fill:#ffffff;fill-opacity:1;fill-rule:nonzero;stroke:none;stroke-width:0.1"
       id="path230" /><path
       d="m 240.401,239.863 c -0.036,-1.203 0.911,-2.208 2.114,-2.243 1.203,-0.035 2.207,0.911 2.242,2.114 0.036,1.203 -0.91,2.207 -2.113,2.242 -1.203,0.036 -2.208,-0.91 -2.243,-2.113"
       style="fill:#d17570;fill-opacity:1;fill-rule:nonzero;stroke:none;stroke-width:0.1"
       id="path232" /><path
       d="m 241.605,247.366 c 0,0 -4.196,-6.5 2.137,-6.937 l 1.584,3.399 -1.394,3.552 -2.327,-0.014"
       style="fill:#1e1f26;fill-opacity:1;fill-rule:nonzero;stroke:none;stroke-width:0.1"
       id="path234" /><path
       d="m 247.437,231.126 0.226,-0.007 c 3.341,-0.099 6.129,2.529 6.227,5.87 l 0.202,7.774 c 0.026,0.865 -0.655,1.586 -1.519,1.613 l -7.962,0.234 c -1.544,0.046 -2.834,-1.169 -2.879,-2.714 l -0.165,-6.543 c -0.099,-3.341 2.529,-6.129 5.87,-6.227"
       style="fill:#e7a185;fill-opacity:1;fill-rule:nonzero;stroke:none;stroke-width:0.1"
       id="path236" /><path
       d="m 240.587,243.557 c -0.578,0.723 -4.619,3.7 -1.062,7.455 1.756,1.855 3.428,0.857 5.344,0.022 0.752,0.341 2.903,1.27 5.271,1.158 2.388,-0.112 4.163,-1.582 5.168,-3.525 l 0.002,0.004 c 0,0 2.586,-0.087 3.74,-2.944 2.096,-5.185 -5.497,-11.808 -5.497,-11.808 l 0.005,6.525 c -3.016,0.216 -3.1,2.927 -2.85,4.623 -4.814,-1.003 -8.976,-0.476 -8.976,-0.476 0,0 0.311,-0.923 -0.577,-0.109 l -0.408,0.315 v 0 c -0.654,0.276 0.011,-1.526 -0.16,-1.24"
       style="fill:#1e1f26;fill-opacity:1;fill-rule:nonzero;stroke:none;stroke-width:0.1"
       id="path238" /><path
       d="m 252.529,239.303 c -0.036,-1.203 0.911,-2.208 2.114,-2.243 1.203,-0.035 2.207,0.911 2.242,2.114 0.037,1.204 -0.911,2.208 -2.114,2.244 -1.203,0.035 -2.207,-0.911 -2.242,-2.115"
       style="fill:#e7a185;fill-opacity:1;fill-rule:nonzero;stroke:none;stroke-width:0.1"
       id="path240" /><path
       d="m 252.814,217.492 c -17.002,0 -30.786,-13.783 -30.786,-30.786 0,-17.003 13.784,-30.786 30.786,-30.786 17.003,0 30.786,13.783 30.786,30.786 0,17.003 -13.783,30.786 -30.786,30.786"
       style="fill:#88d7d3;fill-opacity:1;fill-rule:nonzero;stroke:none;stroke-width:0.1"
       id="path242" /><path
       d="m 252.814,210.851 c 13.336,0 24.146,-10.81 24.146,-24.145 0,-13.335 -10.81,-24.146 -24.146,-24.146 -13.335,0 -24.145,10.811 -24.145,24.146 0,13.335 10.81,24.145 24.145,24.145"
       style="fill:#6acdc7;fill-opacity:1;fill-rule:nonzero;stroke:none;stroke-width:0.1"
       id="path244" /><path
       d="m 253.173,210.851 c -0.455,0 -0.907,-0.015 -1.356,-0.042 12.506,-0.715 21.194,-11.24 21.194,-24.124 0,-12.884 -8.688,-23.41 -21.194,-24.125 0.449,-0.025 0.901,-0.041 1.356,-0.041 13.137,0 23.787,10.82 23.787,24.166 0,13.347 -10.65,24.166 -23.787,24.166"
       style="fill:#5ac7bd;fill-opacity:1;fill-rule:nonzero;stroke:none;stroke-width:0.1"
       id="path246" /><path
       d="m 255.045,173.674 v -4.018 h -4.344 v 3.873 c -3.62,0.253 -7.058,1.304 -9.158,2.751 l 2.353,5.285 c 2.244,-1.484 5.429,-2.498 8.361,-2.498 2.968,0 4.126,0.833 4.126,2.064 0,4.017 -14.405,1.085 -14.405,10.497 0,3.981 2.859,7.347 8.723,8.072 v 3.981 h 4.344 v -3.909 c 2.678,-0.218 5.321,-0.941 7.347,-2.136 l -2.208,-5.321 c -2.425,1.304 -4.813,1.955 -7.021,1.955 -3.005,0 -4.091,-1.013 -4.091,-2.28 0,-3.873 14.37,-0.978 14.37,-10.316 0,-3.837 -2.751,-7.167 -8.397,-8"
       style="fill:#ffffff;fill-opacity:1;fill-rule:nonzero;stroke:none;stroke-width:0.1"
       id="path248" /><path
       d="m 261.347,196.515 c 1.763,-1.423 1.655,-3.38 0.233,-5.142 -1.423,-1.762 -3.621,-2.661 -5.384,-1.239 -1.762,1.422 -2.037,4.004 -0.614,5.766 1.422,1.763 4.004,2.037 5.765,0.615"
       style="fill:#e7a185;fill-opacity:1;fill-rule:nonzero;stroke:none;stroke-width:0.1"
       id="path250" /><path
       d="m 264.959,197.295 -2.977,-3.688 c -0.777,-0.963 -2.202,-1.115 -3.165,-0.338 v 0 c -0.963,0.779 -1.115,2.203 -0.338,3.166 l 2.977,3.688 c 0.778,0.963 2.202,1.115 3.166,0.337 v 0 c 0.963,-0.778 1.115,-2.202 0.337,-3.165"
       style="fill:#e7a185;fill-opacity:1;fill-rule:nonzero;stroke:none;stroke-width:0.1"
       id="path252" /><path
       d="m 266.07,195.571 -6.475,3.669 7.68,11.001 -12.037,9.124 c -1.905,1.585 -3.29,5.652 0.217,8.434 v 0 c 1.3,1.294 4.716,0.531 6.011,-0.77 l 15.821,-12.912 c 0.92,-0.924 1.215,-2.3 0.755,-3.52 L 266.07,195.571"
       style="fill:#e9dc8a;fill-opacity:1;fill-rule:nonzero;stroke:none;stroke-width:0.1"
       id="path254" /><path
       d="m 425.889,143.279 v -7.624 c 0,-0.077 -0.006,-0.155 -0.023,-0.233 -0.013,-0.083 -0.036,-0.162 -0.061,-0.24 -0.029,-0.071 -0.059,-0.149 -0.101,-0.215 -0.077,-0.137 -0.179,-0.263 -0.305,-0.365 0,-0.006 -0.006,-0.006 -0.012,-0.012 0,0 0,-0.006 -0.007,-0.006 -0.035,-0.03 -0.077,-0.06 -0.119,-0.083 -0.03,-0.025 -0.059,-0.042 -0.089,-0.061 -0.006,0 -0.006,-0.006 -0.012,-0.006 -0.054,-0.029 -0.114,-0.053 -0.174,-0.078 -0.065,-0.023 -0.138,-0.047 -0.21,-0.059 -0.012,-0.006 -0.023,-0.006 -0.041,-0.006 -0.078,-0.018 -0.156,-0.024 -0.239,-0.024 h -52.697 c -0.083,0 -0.161,0.006 -0.239,0.024 -0.012,0 -0.029,0 -0.042,0.006 -0.071,0.012 -0.143,0.036 -0.209,0.059 -0.059,0.025 -0.12,0.049 -0.174,0.078 -0.023,0.019 -0.047,0.031 -0.065,0.042 -0.197,0.12 -0.359,0.293 -0.473,0.491 -0.042,0.066 -0.072,0.144 -0.101,0.215 -0.025,0.078 -0.049,0.157 -0.061,0.24 -0.017,0.078 -0.023,0.156 -0.023,0.233 v 7.624 c 0,0.084 0.006,0.161 0.023,0.239 0.109,0.653 0.677,1.15 1.364,1.15 h 52.697 c 0.693,0 1.261,-0.497 1.37,-1.15 0.017,-0.078 0.023,-0.155 0.023,-0.239"
       style="fill:#6acdc7;fill-opacity:1;fill-rule:nonzero;stroke:none;stroke-width:0.1"
       id="path256" /><path
       d="m 421.043,144.668 v -10.401 h -11.7 v 10.401 h 11.7"
       style="fill:#88d7d3;fill-opacity:1;fill-rule:nonzero;stroke:none;stroke-width:0.1"
       id="path258" /><path
       d="m 425.866,143.518 h -55.431 c 0.109,0.653 0.677,1.15 1.364,1.15 h 52.697 c 0.693,0 1.261,-0.497 1.37,-1.15"
       style="fill:#88d7d3;fill-opacity:1;fill-rule:nonzero;stroke:none;stroke-width:0.1"
       id="path260" /><path
       d="m 425.866,135.422 c -0.013,-0.083 -0.036,-0.162 -0.061,-0.24 -0.029,-0.071 -0.059,-0.149 -0.101,-0.215 -0.077,-0.137 -0.179,-0.263 -0.305,-0.365 0,-0.006 -0.006,-0.006 -0.012,-0.012 0,0 0,-0.006 -0.007,0 v -0.006 c -0.035,-0.03 -0.077,-0.06 -0.119,-0.083 -0.03,-0.025 -0.059,-0.042 -0.089,-0.061 -0.006,0 -0.006,-0.006 -0.012,-0.006 -0.054,-0.029 -0.114,-0.053 -0.174,-0.078 -0.065,-0.023 -0.138,-0.047 -0.21,-0.059 -0.012,-0.006 -0.023,-0.006 -0.041,-0.006 -0.078,-0.018 -0.156,-0.024 -0.239,-0.024 h -52.697 c -0.083,0 -0.161,0.006 -0.239,0.024 -0.012,0 -0.029,0 -0.042,0.006 -0.071,0.012 -0.143,0.036 -0.209,0.059 -0.059,0.025 -0.12,0.049 -0.174,0.078 -0.023,0.019 -0.047,0.031 -0.065,0.042 -0.197,0.12 -0.359,0.293 -0.473,0.491 -0.042,0.066 -0.072,0.144 -0.101,0.215 -0.025,0.078 -0.049,0.157 -0.061,0.24 h 55.431"
       style="fill:#88d7d3;fill-opacity:1;fill-rule:nonzero;stroke:none;stroke-width:0.1"
       id="path262" /><path
       d="m 446.705,161.924 v -7.625 c 0,-0.078 -0.006,-0.155 -0.024,-0.233 -0.012,-0.084 -0.036,-0.161 -0.06,-0.239 -0.03,-0.072 -0.06,-0.15 -0.102,-0.216 -0.077,-0.138 -0.179,-0.263 -0.305,-0.364 0,-0.007 -0.005,-0.007 -0.011,-0.013 0,0 0,-0.006 -0.007,-0.006 -0.035,-0.029 -0.077,-0.059 -0.119,-0.084 -0.03,-0.023 -0.06,-0.042 -0.09,-0.059 -0.006,0 -0.006,-0.006 -0.012,-0.006 -0.053,-0.03 -0.114,-0.054 -0.174,-0.078 -0.065,-0.024 -0.137,-0.048 -0.21,-0.06 -0.011,-0.006 -0.023,-0.006 -0.041,-0.006 -0.078,-0.018 -0.156,-0.024 -0.239,-0.024 h -52.696 c -0.083,0 -0.161,0.006 -0.239,0.024 -0.012,0 -0.03,0 -0.042,0.006 -0.072,0.012 -0.144,0.036 -0.209,0.06 -0.06,0.024 -0.12,0.048 -0.174,0.078 -0.024,0.017 -0.048,0.03 -0.066,0.042 -0.197,0.119 -0.359,0.293 -0.472,0.49 -0.042,0.066 -0.073,0.144 -0.102,0.216 -0.024,0.078 -0.048,0.155 -0.06,0.239 -0.018,0.078 -0.024,0.155 -0.024,0.233 v 7.625 c 0,0.083 0.006,0.161 0.024,0.239 0.108,0.652 0.676,1.148 1.364,1.148 h 52.696 c 0.694,0 1.262,-0.496 1.37,-1.148 0.018,-0.078 0.024,-0.156 0.024,-0.239"
       style="fill:#6acdc7;fill-opacity:1;fill-rule:nonzero;stroke:none;stroke-width:0.1"
       id="path264" /><path
       d="m 441.858,163.311 v -10.4 h -11.699 v 10.4 h 11.699"
       style="fill:#88d7d3;fill-opacity:1;fill-rule:nonzero;stroke:none;stroke-width:0.1"
       id="path266" /><path
       d="m 446.681,162.163 h -55.43 c 0.108,0.652 0.676,1.148 1.364,1.148 h 52.696 c 0.694,0 1.262,-0.496 1.37,-1.148"
       style="fill:#88d7d3;fill-opacity:1;fill-rule:nonzero;stroke:none;stroke-width:0.1"
       id="path268" /><path
       d="m 446.681,154.066 c -0.012,-0.084 -0.036,-0.161 -0.06,-0.239 -0.03,-0.072 -0.06,-0.15 -0.102,-0.216 -0.077,-0.138 -0.179,-0.263 -0.305,-0.364 0,-0.007 -0.005,-0.007 -0.011,-0.013 0,0 0,-0.006 -0.007,0 v -0.006 c -0.035,-0.029 -0.077,-0.059 -0.119,-0.084 -0.03,-0.023 -0.06,-0.042 -0.09,-0.059 -0.006,0 -0.006,-0.006 -0.012,-0.006 -0.053,-0.03 -0.114,-0.054 -0.174,-0.078 -0.065,-0.024 -0.137,-0.048 -0.21,-0.06 -0.011,-0.006 -0.023,-0.006 -0.041,-0.006 -0.078,-0.018 -0.156,-0.024 -0.239,-0.024 h -52.696 c -0.083,0 -0.161,0.006 -0.239,0.024 -0.012,0 -0.03,0 -0.042,0.006 -0.072,0.012 -0.144,0.036 -0.209,0.06 -0.06,0.024 -0.12,0.048 -0.174,0.078 -0.024,0.017 -0.048,0.03 -0.066,0.042 -0.197,0.119 -0.359,0.293 -0.472,0.49 -0.042,0.066 -0.073,0.144 -0.102,0.216 -0.024,0.078 -0.048,0.155 -0.06,0.239 h 55.43"
       style="fill:#88d7d3;fill-opacity:1;fill-rule:nonzero;stroke:none;stroke-width:0.1"
       id="path270" /><path
       d="m 434.493,152.53 v -7.623 c 0,-0.078 -0.006,-0.156 -0.024,-0.233 -0.011,-0.084 -0.036,-0.163 -0.059,-0.24 -0.03,-0.072 -0.061,-0.15 -0.102,-0.216 -0.078,-0.137 -0.179,-0.263 -0.305,-0.365 0,-0.006 -0.006,-0.006 -0.012,-0.012 0,0 0,-0.005 -0.006,-0.005 -0.036,-0.031 -0.078,-0.06 -0.12,-0.084 -0.03,-0.025 -0.06,-0.042 -0.09,-0.06 -0.006,0 -0.006,-0.007 -0.012,-0.007 -0.053,-0.029 -0.113,-0.053 -0.174,-0.077 -0.065,-0.024 -0.137,-0.048 -0.209,-0.059 -0.012,-0.006 -0.024,-0.006 -0.041,-0.006 -0.079,-0.019 -0.156,-0.025 -0.24,-0.025 h -52.695 c -0.084,0 -0.162,0.006 -0.239,0.025 -0.013,0 -0.031,0 -0.042,0.006 -0.073,0.011 -0.144,0.035 -0.21,0.059 -0.06,0.024 -0.119,0.048 -0.174,0.077 -0.024,0.019 -0.047,0.031 -0.066,0.042 -0.197,0.12 -0.359,0.294 -0.472,0.491 -0.042,0.066 -0.072,0.144 -0.102,0.216 -0.024,0.077 -0.048,0.156 -0.059,0.24 -0.019,0.077 -0.025,0.155 -0.025,0.233 v 7.623 c 0,0.084 0.006,0.162 0.025,0.239 0.107,0.653 0.675,1.15 1.364,1.15 h 52.695 c 0.695,0 1.263,-0.497 1.37,-1.15 0.018,-0.077 0.024,-0.155 0.024,-0.239"
       style="fill:#6acdc7;fill-opacity:1;fill-rule:nonzero;stroke:none;stroke-width:0.1"
       id="path272" /><path
       d="m 429.646,153.919 v -10.401 h -11.698 v 10.401 h 11.698"
       style="fill:#88d7d3;fill-opacity:1;fill-rule:nonzero;stroke:none;stroke-width:0.1"
       id="path274" /><path
       d="M 434.469,152.769 H 379.04 c 0.107,0.653 0.675,1.15 1.364,1.15 h 52.695 c 0.695,0 1.263,-0.497 1.37,-1.15"
       style="fill:#88d7d3;fill-opacity:1;fill-rule:nonzero;stroke:none;stroke-width:0.1"
       id="path276" /><path
       d="m 434.469,144.674 c -0.011,-0.084 -0.036,-0.163 -0.059,-0.24 -0.03,-0.072 -0.061,-0.15 -0.102,-0.216 -0.078,-0.137 -0.179,-0.263 -0.305,-0.365 0,-0.006 -0.006,-0.006 -0.012,-0.012 0,0 0,-0.005 -0.006,0 v -0.005 c -0.036,-0.031 -0.078,-0.06 -0.12,-0.084 -0.03,-0.025 -0.06,-0.042 -0.09,-0.06 -0.006,0 -0.006,-0.007 -0.012,-0.007 -0.053,-0.029 -0.113,-0.053 -0.174,-0.077 -0.065,-0.024 -0.137,-0.048 -0.209,-0.059 -0.012,-0.006 -0.024,-0.006 -0.041,-0.006 -0.079,-0.019 -0.156,-0.025 -0.24,-0.025 h -52.695 c -0.084,0 -0.162,0.006 -0.239,0.025 -0.013,0 -0.031,0 -0.042,0.006 -0.073,0.011 -0.144,0.035 -0.21,0.059 -0.06,0.024 -0.119,0.048 -0.174,0.077 -0.024,0.019 -0.047,0.031 -0.066,0.042 -0.197,0.12 -0.359,0.294 -0.472,0.491 -0.042,0.066 -0.072,0.144 -0.102,0.216 -0.024,0.077 -0.048,0.156 -0.059,0.24 h 55.429"
       style="fill:#88d7d3;fill-opacity:1;fill-rule:nonzero;stroke:none;stroke-width:0.1"
       id="path278" /><path
       d="m 434.493,171.749 v -7.623 c 0,-0.078 -0.006,-0.157 -0.024,-0.234 -0.011,-0.084 -0.036,-0.162 -0.059,-0.24 -0.03,-0.071 -0.061,-0.149 -0.102,-0.215 -0.078,-0.138 -0.179,-0.263 -0.305,-0.365 0,-0.006 -0.006,-0.006 -0.012,-0.012 0,0 0,-0.006 -0.006,-0.006 -0.036,-0.03 -0.078,-0.06 -0.12,-0.084 -0.03,-0.024 -0.06,-0.042 -0.09,-0.059 -0.006,0 -0.006,-0.006 -0.012,-0.006 -0.053,-0.03 -0.113,-0.055 -0.174,-0.078 -0.065,-0.025 -0.137,-0.048 -0.209,-0.06 -0.012,-0.007 -0.024,-0.007 -0.041,-0.007 -0.079,-0.017 -0.156,-0.023 -0.24,-0.023 h -52.695 c -0.084,0 -0.162,0.006 -0.239,0.023 -0.013,0 -0.031,0 -0.042,0.007 -0.073,0.012 -0.144,0.035 -0.21,0.06 -0.06,0.023 -0.119,0.048 -0.174,0.078 -0.024,0.018 -0.047,0.029 -0.066,0.041 -0.197,0.12 -0.359,0.294 -0.472,0.491 -0.042,0.066 -0.072,0.144 -0.102,0.215 -0.024,0.078 -0.048,0.156 -0.059,0.24 -0.019,0.077 -0.025,0.156 -0.025,0.234 v 7.623 c 0,0.084 0.006,0.162 0.025,0.239 0.107,0.652 0.675,1.149 1.364,1.149 h 52.695 c 0.695,0 1.263,-0.497 1.37,-1.149 0.018,-0.077 0.024,-0.155 0.024,-0.239"
       style="fill:#6acdc7;fill-opacity:1;fill-rule:nonzero;stroke:none;stroke-width:0.1"
       id="path280" /><path
       d="m 429.646,173.137 v -10.4 h -11.698 v 10.4 h 11.698"
       style="fill:#88d7d3;fill-opacity:1;fill-rule:nonzero;stroke:none;stroke-width:0.1"
       id="path282" /><path
       d="M 434.469,171.988 H 379.04 c 0.107,0.652 0.675,1.149 1.364,1.149 h 52.695 c 0.695,0 1.263,-0.497 1.37,-1.149"
       style="fill:#88d7d3;fill-opacity:1;fill-rule:nonzero;stroke:none;stroke-width:0.1"
       id="path284" /><path
       d="m 434.469,163.892 c -0.011,-0.084 -0.036,-0.162 -0.059,-0.24 -0.03,-0.071 -0.061,-0.149 -0.102,-0.215 -0.078,-0.138 -0.179,-0.263 -0.305,-0.365 0,-0.006 -0.006,-0.006 -0.012,-0.012 0,0 0,-0.006 -0.006,0 v -0.006 c -0.036,-0.03 -0.078,-0.06 -0.12,-0.084 -0.03,-0.024 -0.06,-0.042 -0.09,-0.059 -0.006,0 -0.006,-0.006 -0.012,-0.006 -0.053,-0.03 -0.113,-0.055 -0.174,-0.078 -0.065,-0.025 -0.137,-0.048 -0.209,-0.06 -0.012,-0.007 -0.024,-0.007 -0.041,-0.007 -0.079,-0.017 -0.156,-0.023 -0.24,-0.023 h -52.695 c -0.084,0 -0.162,0.006 -0.239,0.023 -0.013,0 -0.031,0 -0.042,0.007 -0.073,0.012 -0.144,0.035 -0.21,0.06 -0.06,0.023 -0.119,0.048 -0.174,0.078 -0.024,0.018 -0.047,0.029 -0.066,0.041 -0.197,0.12 -0.359,0.294 -0.472,0.491 -0.042,0.066 -0.072,0.144 -0.102,0.215 -0.024,0.078 -0.048,0.156 -0.059,0.24 h 55.429"
       style="fill:#88d7d3;fill-opacity:1;fill-rule:nonzero;stroke:none;stroke-width:0.1"
       id="path286" /><path
       d="m 411.377,180.377 c -1.336,-0.012 -2.555,0.757 -3.119,1.968 l -9.246,22.745 c -0.793,1.705 -0.53,4.365 1.175,5.158 l -0.23,0.703 c 1.705,0.793 5.737,-0.491 7.887,-5.346 l 6.733,-17.128 -3.2,-8.1"
       style="fill:#ddcc79;fill-opacity:1;fill-rule:nonzero;stroke:none;stroke-width:0.1"
       id="path288" /><path
       d="m 432.022,177.995 1.513,-9.696 5.446,1.252 -1.523,9.6 -5.436,-1.156"
       style="fill:#e7a185;fill-opacity:1;fill-rule:nonzero;stroke:none;stroke-width:0.1"
       id="path290" /><path
       d="m 432.036,169.893 -0.707,-5.44 c 0.028,-0.79 0.692,-1.409 1.482,-1.381 l 14.487,0.515 c 0.666,0.023 1.187,0.582 1.164,1.249 v 0 c -0.013,0.375 -0.201,0.722 -0.507,0.94 l -8.683,4.374 -7.236,-0.257"
       style="fill:#18141a;fill-opacity:1;fill-rule:nonzero;stroke:none;stroke-width:0.1"
       id="path292" /><path
       d="m 408.681,185.292 18.676,15.71 8.653,-5.72 -19.183,-22.14 c -4.278,-4.544 -13.519,-5.581 -16.921,-0.35 -0.481,0.738 -0.024,1.718 -0.484,2.655 l 9.259,9.845"
       style="fill:#3b45a2;fill-opacity:1;fill-rule:nonzero;stroke:none;stroke-width:0.1"
       id="path294" /><path
       d="m 426.422,195.432 4.415,-21.874 9.469,1.666 -4.491,23.377 c -0.075,1.127 -0.63,2.105 -1.466,2.775 -0.964,0.772 -3.01,1.058 -4.487,0.826 -0.417,-0.067 -0.812,-0.226 -1.177,-0.436 l -1.328,-0.764 -0.935,-5.57"
       style="fill:#3b45a2;fill-opacity:1;fill-rule:nonzero;stroke:none;stroke-width:0.1"
       id="path296" /><path
       d="m 427.993,153.86 2.166,-9.935 5.959,1.67 -2.046,9.862 -6.079,-1.597"
       style="fill:#e7a185;fill-opacity:1;fill-rule:nonzero;stroke:none;stroke-width:0.1"
       id="path298" /><path
       d="m 429.24,146.195 -1.244,-5.343 c -0.051,-0.79 0.548,-1.47 1.338,-1.521 l 14.466,-0.929 c 0.665,-0.042 1.239,0.462 1.282,1.127 v 0 c 0.024,0.375 -0.128,0.74 -0.411,0.987 l -8.206,5.215 -7.225,0.464"
       style="fill:#18141a;fill-opacity:1;fill-rule:nonzero;stroke:none;stroke-width:0.1"
       id="path300" /><path
       d="m 406.104,181.763 21.707,-1.791 c 2.553,0.082 4.795,-1.667 5.346,-4.162 0.138,-0.626 0.257,-1.344 0.349,-2.168 0.576,-5.098 3.45,-23.336 3.45,-23.336 l -9.702,-1.421 -4.251,19.459 -20.293,-0.678 c -4.054,-0.265 -8.001,1.763 -9.894,5.359 -0.724,1.375 -1.142,2.947 -0.894,4.653 l 14.182,4.085"
       style="fill:#3e47a5;fill-opacity:1;fill-rule:nonzero;stroke:none;stroke-width:0.1"
       id="path302" /><path
       d="m 388.802,199.91 1.048,-25.069 c 18.401,0.45 20.314,11.03 20.314,11.03 l -2.548,19.105 c -0.148,0.937 -0.521,1.996 -1.118,3.031 -1.622,2.807 -4.862,4.27 -8.065,3.759 l -0.869,0.116 c -8.766,-0.713 -9.253,-5.782 -8.762,-11.972"
       style="fill:#e9dc8a;fill-opacity:1;fill-rule:nonzero;stroke:none;stroke-width:0.1"
       id="path304" /><path
       d="m 389.149,191.625 4.099,6.132 -1.997,-11.041 -1.949,1.235 -0.153,3.674"
       style="fill:#ddcc79;fill-opacity:1;fill-rule:nonzero;stroke:none;stroke-width:0.1"
       id="path306" /><path
       d="m 397.44,179.512 c -0.996,-1.844 -0.203,-3.477 1.642,-4.473 1.844,-0.995 4.044,-0.977 5.039,0.868 0.996,1.845 0.307,4.147 -1.537,5.142 -1.846,0.997 -4.148,0.308 -5.144,-1.537"
       style="fill:#e7a185;fill-opacity:1;fill-rule:nonzero;stroke:none;stroke-width:0.1"
       id="path308" /><path
       d="m 394.078,178.886 3.86,-2.084 c 1.009,-0.544 2.279,-0.164 2.823,0.844 v 0 c 0.544,1.009 0.165,2.279 -0.843,2.824 l -3.861,2.083 c -1.009,0.545 -2.279,0.165 -2.823,-0.843 v 0 c -0.545,-1.009 -0.165,-2.28 0.844,-2.824"
       style="fill:#e7a185;fill-opacity:1;fill-rule:nonzero;stroke:none;stroke-width:0.1"
       id="path310" /><path
       d="m 393.745,177.017 4.217,5.449 -10.493,6.646 8.802,13.168 c 1.06,2.034 1.316,6.765 -2.673,7.885 v -0.286 c -1.573,0.64 -2.497,0.545 -5.386,-3.283 l -10.677,-17.755 c -0.455,-1.119 -0.215,-2.399 0.614,-3.275 l 15.596,-8.549"
       style="fill:#e9dc8a;fill-opacity:1;fill-rule:nonzero;stroke:none;stroke-width:0.1"
       id="path312" /><path
       d="m 409.735,222.145 c -1.283,1.468 -0.87,3.761 -0.87,3.761 0.237,1.361 0.09,2.413 -0.273,3.229 -1.37,4.692 -7.318,4.883 -12.227,4.206 -5.767,-0.796 -6.978,-6.301 -6.978,-6.301 l 3.084,-1.984 c 0,0 3.718,-1.469 7.614,-2.146 l -0.18,-6.25 h 11.213 c 0.397,2.03 -0.099,4.017 -1.383,5.485"
       style="fill:#1e1f26;fill-opacity:1;fill-rule:nonzero;stroke:none;stroke-width:0.1"
       id="path314" /><path
       d="m 395.106,210.909 v 7.86 h 6.612 v -7.86 c 0,-1.826 -1.48,-3.307 -3.305,-3.307 v 0 c -1.826,0 -3.307,1.481 -3.307,3.307"
       style="fill:#e7a185;fill-opacity:1;fill-rule:nonzero;stroke:none;stroke-width:0.1"
       id="path316" /><path
       d="m 394.862,220.38 c 0,0 0.731,-7.897 6.856,-7.418 l -0.005,3.956 -6.851,3.462"
       style="fill:#d17570;fill-opacity:1;fill-rule:nonzero;stroke:none;stroke-width:0.1"
       id="path318" /><path
       d="m 408.048,222.033 c 0.011,-1.164 -0.923,-2.116 -2.087,-2.127 -1.164,-0.011 -2.117,0.925 -2.127,2.089 -0.011,1.164 0.924,2.116 2.088,2.127 1.164,0.01 2.116,-0.925 2.126,-2.089"
       style="fill:#d17570;fill-opacity:1;fill-rule:nonzero;stroke:none;stroke-width:0.1"
       id="path320" /><path
       d="m 400.524,214.568 -0.233,-0.002 c -3.452,-0.031 -6.275,2.74 -6.306,6.192 l -0.064,7.055 c -0.008,0.893 0.709,1.624 1.602,1.632 l 8.225,0.075 c 1.595,0.015 2.9,-1.267 2.915,-2.863 l 0.052,-5.783 c 0.032,-3.451 -2.741,-6.275 -6.191,-6.306"
       style="fill:#e7a185;fill-opacity:1;fill-rule:nonzero;stroke:none;stroke-width:0.1"
       id="path322" /><path
       d="m 397.323,226.533 c 0,0 0.09,-3.567 -2.278,-3.958 -2.37,-0.392 -1.093,3.958 -1.093,3.958 h 3.371"
       style="fill:#1e1f26;fill-opacity:1;fill-rule:nonzero;stroke:none;stroke-width:0.1"
       id="path324" /><path
       d="m 395.94,233.167 c 0,0 -4.948,0.2 -7.421,-6.869 -2.472,-7.069 0.726,-10.568 0.852,-10.702 h 6.688 c 0.397,2.031 -0.242,3.912 -0.953,5.451 -0.817,1.77 -0.171,3.794 -0.171,3.794 0.019,0.105 0.033,0.203 0.049,0.302 2.44,0.167 8.36,1.007 9.249,5.226 l 0.147,1.567 -8.44,1.231"
       style="fill:#1e1f26;fill-opacity:1;fill-rule:nonzero;stroke:none;stroke-width:0.1"
       id="path326" /><path
       d="m 396.059,222.165 c 0.011,-1.164 -0.925,-2.117 -2.088,-2.127 -1.164,-0.011 -2.117,0.924 -2.127,2.088 -0.01,1.164 0.924,2.116 2.088,2.127 1.164,0.01 2.116,-0.925 2.127,-2.088"
       style="fill:#e7a185;fill-opacity:1;fill-rule:nonzero;stroke:none;stroke-width:0.1"
       id="path328" /></g></svg>